<?xml version="1.0" encoding="UTF-8"?>
<svg version="1.1" xmlns="http://www.w3.org/2000/svg" width="512" height="512">
<path d="M0 0 C1.01823853 0.00215515 2.03647705 0.0043103 3.08557129 0.00653076 C17.70747424 0.05622604 32.00633932 0.36188758 46.375 3.3125 C47.89383789 3.61051514 47.89383789 3.61051514 49.44335938 3.91455078 C88.1129883 11.6473181 127.1190666 27.49780453 157.375 53.3125 C157.00568359 53.80443848 156.63636719 54.29637695 156.25585938 54.80322266 C153.71774611 58.1854924 151.18182463 61.56929192 148.65625 64.9609375 C141.61033749 74.41018527 134.41910449 83.73844113 127.16162109 93.02587891 C124.20810743 96.80595666 121.2596535 100.58996248 118.3125 104.375 C117.74128418 105.10759033 117.17006836 105.84018066 116.58154297 106.5949707 C113.58810073 110.44071835 110.61718844 114.30177483 107.67578125 118.1875 C107.07967041 118.97374756 106.48355957 119.75999512 105.86938477 120.57006836 C104.72965029 122.07604921 103.59326777 123.58457431 102.46069336 125.09594727 C101.9528833 125.76682373 101.44507324 126.4377002 100.921875 127.12890625 C100.47682617 127.72131104 100.03177734 128.31371582 99.57324219 128.92407227 C98.375 130.3125 98.375 130.3125 96.375 131.3125 C95.48941406 130.69503906 94.60382813 130.07757813 93.69140625 129.44140625 C57.72100188 104.69821759 16.02688707 93.76971481 -27.4765625 101.28125 C-62.1301186 107.92460956 -95.97017403 125.82125051 -118.625 153.3125 C-119.25019531 154.04984375 -119.87539062 154.7871875 -120.51953125 155.546875 C-147.65663247 188.30408594 -160.10318194 230.64568633 -156.16015625 272.87109375 C-151.84155998 311.71437239 -133.08457649 350.21155271 -102.625 375.3125 C-101.51898438 376.25029297 -101.51898438 376.25029297 -100.390625 377.20703125 C-67.98627862 404.0518084 -26.59811192 416.19409873 15.16845703 413.10595703 C53.37072226 409.42288827 92.61387422 391.10414576 117.63671875 361.421875 C118.21035156 360.72578125 118.78398437 360.0296875 119.375 359.3125 C120.00019531 358.57515625 120.62539063 357.8378125 121.26953125 357.078125 C134.27847715 341.37501871 142.37969352 323.96821512 150.375 305.3125 C100.875 305.3125 51.375 305.3125 0.375 305.3125 C0.375 272.9725 0.375 240.6325 0.375 207.3125 C84.855 207.3125 169.335 207.3125 256.375 207.3125 C256.375 285.28912618 252.81702816 350.3052071 204.375 412.3125 C203.61574219 413.28445313 202.85648437 414.25640625 202.07421875 415.2578125 C189.73986402 430.63741644 175.93895499 445.19015196 160.375 457.3125 C159.43914062 458.07691406 158.50328125 458.84132813 157.5390625 459.62890625 C125.58628299 485.2157721 86.41988322 501.72551276 46.375 509.3125 C45.56562988 509.47621094 44.75625977 509.63992188 43.92236328 509.80859375 C13.88110013 515.67977137 -20.7615176 514.58512909 -50.625 508.3125 C-52.14794678 507.99901611 -52.14794678 507.99901611 -53.70166016 507.67919922 C-90.84546555 499.78695344 -125.70945445 483.68345578 -155.625 460.3125 C-156.59695312 459.55324219 -157.56890625 458.79398437 -158.5703125 458.01171875 C-173.94991644 445.67736402 -188.50265196 431.87645499 -200.625 416.3125 C-201.77162109 414.90871094 -201.77162109 414.90871094 -202.94140625 413.4765625 C-228.5282721 381.52378299 -245.03801276 342.35738322 -252.625 302.3125 C-252.78871094 301.50312988 -252.95242187 300.69375977 -253.12109375 299.85986328 C-258.59069558 271.87335724 -258.46977511 238.21828161 -252.625 210.3125 C-252.42632324 209.33764648 -252.22764648 208.36279297 -252.02294922 207.35839844 C-241.93598313 159.13741149 -219.89911449 114.53770064 -185.40722656 79.14160156 C-183.63301167 77.32072238 -181.87518486 75.48496071 -180.1171875 73.6484375 C-173.01562574 66.30860161 -165.60158994 59.73928631 -157.40917969 53.64355469 C-155.59628085 52.2910746 -153.80174757 50.91656557 -152.0078125 49.5390625 C-143.60124472 43.15234877 -134.85975388 37.61076633 -125.65234375 32.45166016 C-123.78933792 31.40484113 -121.94116361 30.33571119 -120.09375 29.26171875 C-83.49333598 8.69459421 -41.63835074 -0.1585367 0 0 Z " fill="#FFFFFF" transform="translate(255.625,-0.3125)"/>
</svg>
